<svg width="328" height="218" viewBox="0 0 328 218" fill="none" xmlns="http://www.w3.org/2000/svg">
<g opacity="0.5">
<path d="M50.3009 30.1903C50.3009 29.0857 51.1963 28.1903 52.3009 28.1903H109.319C118.442 28.1903 125.838 35.5861 125.838 44.7093C125.838 53.8326 118.442 61.2284 109.319 61.2284H70.3009C59.2552 61.2284 50.3009 52.2741 50.3009 41.2284V30.1903Z" fill="#EDEFFF"/>
<path opacity="0.2" d="M74.7523 44.6649C74.7523 46.4649 73.2927 47.9242 71.4921 47.9242C69.6916 47.9242 68.2319 46.4649 68.2319 44.6649C68.2319 42.8649 69.6916 41.4056 71.4921 41.4056C73.2927 41.4056 74.7523 42.8649 74.7523 44.6649Z" fill="#3446EA"/>
<path opacity="0.2" d="M91.0532 44.6649C91.0532 46.4649 89.5936 47.9242 87.7931 47.9242C85.9925 47.9242 84.5329 46.4649 84.5329 44.6649C84.5329 42.8649 85.9925 41.4056 87.7931 41.4056C89.5936 41.4056 91.0532 42.8649 91.0532 44.6649Z" fill="#3446EA"/>
<path opacity="0.2" d="M107.354 44.6649C107.354 46.4649 105.895 47.9242 104.094 47.9242C102.293 47.9242 100.834 46.4649 100.834 44.6649C100.834 42.8649 102.293 41.4056 104.094 41.4056C105.895 41.4056 107.354 42.8649 107.354 44.6649Z" fill="#3446EA"/>
</g>
<g opacity="0.5">
<path d="M157.312 132.418C157.312 123.512 164.532 116.292 173.438 116.292H275.699C276.804 116.292 277.699 117.187 277.699 118.292V128.543C277.699 139.589 268.745 148.543 257.699 148.543H173.438C164.532 148.543 157.312 141.324 157.312 132.418Z" fill="#ECECF2"/>
<path opacity="0.2" d="M227.981 132.665C227.981 134.465 226.521 135.924 224.721 135.924C222.92 135.924 221.461 134.465 221.461 132.665C221.461 130.865 222.92 129.406 224.721 129.406C226.521 129.406 227.981 130.865 227.981 132.665Z" fill="#71717E"/>
<path opacity="0.2" d="M244.282 132.665C244.282 134.465 242.822 135.924 241.022 135.924C239.221 135.924 237.762 134.465 237.762 132.665C237.762 130.865 239.221 129.406 241.022 129.406C242.822 129.406 244.282 130.865 244.282 132.665Z" fill="#71717E"/>
<path opacity="0.2" d="M260.583 132.665C260.583 134.465 259.123 135.924 257.323 135.924C255.522 135.924 254.063 134.465 254.063 132.665C254.063 130.865 255.522 129.406 257.323 129.406C259.123 129.406 260.583 130.865 260.583 132.665Z" fill="#71717E"/>
</g>
<g opacity="0.5">
<rect x="50.3009" y="72.241" width="118.814" height="33.0381" rx="16.519" fill="#EDEFFF"/>
</g>
<path d="M88.5748 86.2964C79.1112 86.2964 71.4296 93.9782 71.4296 103.44V118.494C71.4296 119.647 72.3655 120.583 73.5187 120.583H88.5728C98.0364 120.585 105.718 112.904 105.718 103.44C105.718 93.9782 98.0364 86.2964 88.5748 86.2964Z" fill="#3446EA"/>
<path d="M96.7245 101.296H97.8505C98.1534 101.296 98.3769 101.016 98.308 100.721L96.7934 94.1051C96.7453 93.892 96.5552 93.7395 96.3359 93.7395H95.2099C94.9069 93.7395 94.6834 94.0194 94.7523 94.314L96.2669 100.93C96.315 101.143 96.5051 101.296 96.7245 101.296Z" fill="white"/>
<path d="M92.0658 101.296H93.1918C93.4947 101.296 93.7182 101.016 93.6493 100.721L92.1347 94.1051C92.0867 93.892 91.8965 93.7395 91.6772 93.7395H90.5512C90.2482 93.7395 90.0247 94.0194 90.0936 94.314L91.6082 100.93C91.6563 101.143 91.8464 101.296 92.0658 101.296Z" fill="white"/>
<path d="M234.895 198.969C219.989 205.403 195.83 207.41 178.798 202.266C175.007 201.121 172.281 197.814 171.806 193.893C167.857 161.306 167.115 125.645 168.407 88.0331L208.807 82.7251C240.873 86.426 234.987 122.841 240.981 188.815C241.375 193.159 238.91 197.236 234.895 198.969Z" fill="#3446EA"/>
<path d="M175.145 99.3343C172.262 86.8369 162.868 89.4526 157.038 90.6152C151.207 91.7777 147.709 107.472 139.838 124.329C133.111 138.736 115.109 146.981 110.015 149.075C108.562 149.057 107.186 149.359 105.966 150.061C100.416 153.256 100.11 163.085 105.282 172.015C110.454 180.946 118.592 184.35 124.695 182.402C145.011 175.917 168.068 138.154 171.031 130.142C174.039 122.008 178.028 111.832 175.145 99.3343Z" fill="#3446EA"/>
<path d="M159.309 89.5669C159.309 89.5669 161.557 131.629 179.34 153.718C197.123 175.806 211.435 173.582 219.707 171.838C227.979 170.094 233.065 156.995 222.994 149.65C216.401 144.842 207.699 136.661 201.307 122.893C194.875 109.04 193.648 91.6892 193.648 91.6892L159.309 89.5669Z" fill="#5565F3"/>
<path d="M231.394 71.5782C228.999 78.1382 220.814 81.8232 214.236 79.5235C209.32 77.805 208.905 69.9203 212.406 63.8745C215.908 57.8286 222.403 55.0327 226.915 57.6296C231.427 60.2265 233.782 65.0389 231.394 71.5782Z" fill="#EBEDFF"/>
<path d="M222.524 52.4459C222.524 74.7544 204.386 92.8282 182.018 92.8282C159.65 92.8282 141.512 74.7544 141.512 52.4459C141.512 38.5043 148.594 26.2189 159.376 18.9706C160.121 18.4583 160.875 17.9887 161.654 17.5363C167.64 14.0615 174.593 12.0723 182.018 12.0723C183.311 12.0723 184.596 12.132 185.854 12.2516C186.985 12.354 188.107 12.5077 189.211 12.7126C194.35 13.6261 199.162 15.5128 203.436 18.1766C204.223 18.6632 204.994 19.184 205.748 19.7304C210.406 23.0941 214.32 27.4226 217.197 32.4256C219.544 36.5065 221.188 41.0399 221.984 45.8636C222.344 48.0065 222.524 50.2006 222.524 52.4459Z" fill="#EBEDFF"/>
<path d="M190.709 93.812C190.709 93.812 162.723 98.8255 153.977 90.7603C145.231 82.6952 149.823 81.1693 153.977 80.7334C158.131 80.2974 160.583 87.5048 169.852 88.0427C179.121 88.5806 189.397 88.3626 192.021 90.3244C192.021 90.3244 193.463 85.8002 198.581 86.1828C203.698 86.5654 200.33 92.5042 198.581 92.8311C196.831 93.1581 190.709 93.812 190.709 93.812Z" fill="#DCDCE9"/>
<path d="M156.163 60.0865C158.062 60.0865 159.601 58.5522 159.601 56.6596C159.601 54.767 158.062 53.2327 156.163 53.2327C154.265 53.2327 152.726 54.767 152.726 56.6596C152.726 58.5522 154.265 60.0865 156.163 60.0865Z" fill="#060E56"/>
<path d="M172.705 63.5133C174.603 63.5133 176.142 61.979 176.142 60.0864C176.142 58.1937 174.603 56.6594 172.705 56.6594C170.806 56.6594 169.267 58.1937 169.267 60.0864C169.267 61.979 170.806 63.5133 172.705 63.5133Z" fill="#060E56"/>
<path d="M167.836 74.2627C167.836 74.2627 168.463 80.8633 174 80.6598C179.903 80.4429 179.194 74.0488 179.194 74.0488" stroke="#060E56" stroke-width="3" stroke-miterlimit="10" stroke-linecap="round"/>
<path d="M189.211 12.7126C178.738 22.4282 173.78 33.8343 173.72 33.9794C173.318 34.9185 172.795 35.7637 172.161 36.498C170.286 38.7092 167.511 39.9727 164.634 39.9727C163.367 39.9727 162.073 39.7251 160.832 39.2043C155.831 37.1127 153.467 31.3926 155.548 26.3981C155.694 26.0652 156.927 23.171 159.376 18.9706C160.121 18.4583 160.875 17.9887 161.654 17.5363C167.64 14.0615 174.593 12.0723 182.018 12.0723C183.311 12.0723 184.596 12.132 185.855 12.2516C186.985 12.354 188.107 12.5077 189.211 12.7126Z" fill="#060E56"/>
<path d="M205.748 19.7305C195.84 29.2498 191.147 40.0582 191.087 40.2034C190.684 41.1339 190.162 41.9791 189.537 42.7219C187.661 44.9246 184.887 46.1966 182.001 46.1966C180.733 46.1966 179.44 45.9491 178.199 45.4283C174.473 43.8659 172.213 40.2887 172.161 36.4981C172.144 35.2089 172.384 33.8942 172.915 32.6221C173.18 31.9989 177.214 22.5308 185.854 12.2517C186.985 12.3542 188.107 12.5078 189.211 12.7127C194.35 13.6262 199.162 15.513 203.435 18.1767C204.223 18.6633 204.994 19.1841 205.748 19.7305Z" fill="#060E56"/>
<path d="M217.197 32.4257C211.348 39.7593 208.514 46.2393 208.471 46.3503C206.895 50.1238 203.23 52.3948 199.376 52.3948C198.109 52.3948 196.833 52.1558 195.591 51.6435C191.858 50.0897 189.588 46.5125 189.537 42.7219C189.503 41.4156 189.742 40.0838 190.282 38.8031C190.547 38.1799 194.641 28.5582 203.436 18.1766C204.223 18.6632 204.994 19.1841 205.748 19.7304C210.406 23.0942 214.32 27.4227 217.197 32.4257Z" fill="#060E56"/>
<path d="M123.268 179.939C127.972 177.231 128.232 168.899 123.848 161.329C119.464 153.759 112.096 149.817 107.392 152.525C102.688 155.232 102.429 163.564 106.813 171.134C111.197 178.704 118.564 182.646 123.268 179.939Z" fill="#060E56"/>
<path d="M97.3588 132.776L65.2726 129.06C63.6023 128.866 62.0678 129.997 61.7641 131.646C61.5909 132.586 61.8508 133.555 62.4718 134.283L78.2335 152.765C78.757 153.379 79.4946 153.772 80.2973 153.865L107.66 157.034C109.33 157.228 110.865 156.097 111.169 154.448L111.218 154.178C111.362 153.396 111.208 152.588 110.785 151.914L99.6967 134.249C99.1823 133.43 98.3221 132.888 97.3588 132.776Z" fill="#060E56"/>
<path d="M108.645 158.697C107.741 163.157 99.4484 162.511 90.5252 160.714C81.602 158.917 73.5582 154.11 74.4619 149.65C75.3655 145.19 84.8743 142.765 93.7975 144.561C102.721 146.358 109.548 154.237 108.645 158.697Z" fill="#DCDCE9"/>
<path d="M75.2605 151.697C77.0782 150.93 77.7844 148.5 76.8379 146.269C75.8914 144.037 73.6506 142.849 71.8329 143.616C70.0153 144.382 69.309 146.812 70.2555 149.044C71.2021 151.275 73.4429 152.463 75.2605 151.697Z" fill="#DCDCE9"/>
</svg>
