<svg width="123" height="123" viewBox="0 0 123 123" fill="none" xmlns="http://www.w3.org/2000/svg">
<path d="M61.4962 0C95.4443 0 123 27.5573 123 61.5V115.505C123 119.642 119.643 123 115.506 123H61.5037C27.5557 123.007 0 95.4502 0 61.5C0 27.5573 27.5557 0 61.4962 0Z" fill="#3446EA"/>
<path d="M32.2622 53.8105H28.2229C27.1362 53.8105 26.3344 52.8063 26.5817 51.7496L32.0149 28.0144C32.1872 27.25 32.8692 26.7029 33.6561 26.7029H37.6954C38.782 26.7029 39.5839 27.7071 39.3366 28.7639L33.9034 52.499C33.731 53.2634 33.0491 53.8105 32.2622 53.8105Z" fill="white"/>
<path d="M48.9736 53.8105H44.9343C43.8477 53.8105 43.0458 52.8063 43.2931 51.7496L48.7263 28.0144C48.8987 27.25 49.5806 26.7029 50.3675 26.7029H54.4068C55.4934 26.7029 56.2953 27.7071 56.048 28.7639L50.6148 52.499C50.4424 53.2634 49.7605 53.8105 48.9736 53.8105Z" fill="white"/>
</svg>
